<?xml version="1.0" encoding="utf-8"?>
<!-- Generator: Adobe Illustrator 16.0.0, SVG Export Plug-In . SVG Version: 6.00 Build 0)  -->
<!DOCTYPE svg PUBLIC "-//W3C//DTD SVG 1.1//EN" "http://www.w3.org/Graphics/SVG/1.1/DTD/svg11.dtd">
<svg version="1.1" id="Layer_1" xmlns="http://www.w3.org/2000/svg" xmlns:xlink="http://www.w3.org/1999/xlink" x="0px" y="0px"
	 width="50.812px" height="57.869px" viewBox="0 0 50.812 57.869" enable-background="new 0 0 50.812 57.869" xml:space="preserve">
<path fill-rule="evenodd" clip-rule="evenodd" fill="#4F4F4F" d="M35.192,48.16c0.088,0.156,0.104,0.183,0.122,0.21
	c0.28,0.433,0.561,0.858,0.838,1.291c-0.555,0.291-1.105,0.589-1.67,0.859c-0.104,0.054-0.268,0.047-0.382,0.007
	c-2.326-0.805-4.648,0.02-6.971,0.007c-1.792-0.007-3.581,0.02-5.373-0.014c-0.733-0.007-1.463-0.189-2.197-0.203
	c-1.18-0.014-2.363,0.115-3.533,0.041c-0.784-0.055-1.603-0.244-2.309-0.582c-0.632-0.298-0.325-0.838,0.108-1.149
	c0.642-0.453,0.568-0.812,0.084-1.386c-2.251-2.644-2.948-5.835-3.06-9.202c-0.021-0.575,0.054-1.089-0.629-1.447
	c-0.595-0.311-0.689-1.806,0.007-2.454c1.332-1.244,1.241-2.867,1.342-4.375c0.166-2.495,0.023-5.006,0.047-7.512
	c0.013-1.217,0.162-2.434,0.138-3.651c-0.006-0.406-0.277-0.869-0.554-1.197c-0.325-0.386-0.832-0.612-1.187-0.974
	c-0.747-0.771-0.852-1.751-0.342-2.624c0.494-0.845,1.532-1.346,2.495-0.916c1.207,0.538,1.937,0.098,2.772-0.727
	c2.255-2.234,5.132-3.137,8.205-3.404c3.736-0.321,7.336,0.172,10.535,2.326c0.798,0.537,1.527,1.187,2.228,1.846
	c0.514,0.49,0.983,0.74,1.714,0.456c0.433-0.169,0.95-0.216,1.423-0.189c1.711,0.101,2.543,1.758,1.633,3.218
	c-0.101,0.162-0.209,0.352-0.364,0.439c-1.694,0.94-1.958,2.36-1.664,4.162c0.187,1.153-0.128,2.376-0.114,3.566
	c0.03,2.799,0.104,5.592,0.202,8.391c0.014,0.338,0.207,0.73,0.439,0.994c0.89,0.987,0.879,2.075,0.092,3.198
	c-0.274,0.392-0.25,1.021-0.274,1.548C38.816,42.298,37.741,45.516,35.192,48.16z"/>
</svg>
